/vscmnt/brussel_pixiu_data/_data_brussel/112/vsc11236/PredSimResults/SUBJ10mtu3D/weighted-trackIG/worker_03.mot
version=1
nRows=11
nColumns=50
inDegrees=yes
endheader
                time	         pelvis_tilt	         pelvis_list	     pelvis_rotation	           pelvis_tx	           pelvis_ty	           pelvis_tz	       hip_flexion_r	     hip_adduction_r	      hip_rotation_r	        knee_angle_r	       ankle_angle_r	         mtp_angle_r	       hip_flexion_l	     hip_adduction_l	      hip_rotation_l	        knee_angle_l	       ankle_angle_l	         mtp_angle_l	    lumbar_extension	      lumbar_bending	     lumbar_rotation	 ercspn_r/activation	 intobl_r/activation	 extobl_r/activation	    abd_r/activation	    add_r/activation	hamstrings_r/activation	bifemsh_r/activation	glut_max_r/activation	iliopsoas_r/activation	rect_fem_r/activation	  vasti_r/activation	gastroc_r/activation	 soleus_r/activation	tib_ant_r/activation	 ercspn_l/activation	 intobl_l/activation	 extobl_l/activation	    abd_l/activation	    add_l/activation	hamstrings_l/activation	bifemsh_l/activation	glut_max_l/activation	iliopsoas_l/activation	rect_fem_l/activation	  vasti_l/activation	gastroc_l/activation	 soleus_l/activation	tib_ant_l/activation	
          1.15676252	         -4.83836375	         -3.13196345	         10.49313059	          1.29557402	          0.82697599	         -0.01532923	         28.81356477	         -0.87324639	         -8.37356292	         -3.50490027	          6.94580796	          0.25194374	        -12.82313697	         -3.36835817	          5.77231956	         -7.72901748	         10.03322884	         24.78269221	         -6.94937798	          1.26833584	         -3.94302697	          0.08997968	          0.16596223	          0.02193173	          0.01192793	          0.12223555	          0.03661632	          0.14075721	          0.00999999	          0.07282874	          0.01219294	          0.01000000	          0.01196553	          0.01000004	          0.26291040	          0.03079593	          0.00999999	          0.00999999	          0.04097533	          0.03444798	          0.02622394	          0.13071560	          0.03435240	          0.33015514	          0.01000001	          0.00999999	          0.25617937	          0.24580626	          0.01711095	
          1.16833015	         -4.90693625	         -2.93744538	         10.32732212	          1.31095256	          0.82526158	         -0.01496059	         28.94757467	         -0.67750474	         -7.39852156	         -5.23077653	          6.64916134	          0.25197092	        -12.90516603	         -3.16622452	          5.11051713	         -9.52935123	          9.51384702	         26.45746716	         -6.73717017	          1.64180012	         -4.10692794	          0.07543608	          0.13913742	          0.01838686	          0.00999999	          0.19695173	          0.03175933	          0.11800638	          0.06195301	          0.06105728	          0.01022218	          0.00999999	          0.01862807	          0.01422758	          0.26707611	          0.08107896	          0.00999999	          0.01000000	          0.03435240	          0.08383997	          0.02198532	          0.10958776	          0.02879995	          0.34777938	          0.01000001	          0.01000002	          0.21477257	          0.23160386	          0.01434527	
          1.17989777	         -4.95883789	         -2.75369523	         10.10129945	          1.32667365	          0.82367347	         -0.01456401	         28.87933386	         -0.50898706	         -6.38932083	         -6.88943798	          6.35528092	          0.23993489	        -12.83871698	         -2.96149590	          4.39071720	        -11.66897723	          8.89163326	         28.08996402	         -6.50158311	          2.04636769	         -4.24624129	          0.06599972	          0.11890468	          0.01541495	          0.05123013	          0.16919461	          0.04490976	          0.09893370	          0.06953207	          0.05118846	          0.01000000	          0.00999999	          0.01561718	          0.01192795	          0.30100536	          0.09691225	          0.00999999	          0.01000000	          0.02879995	          0.07698102	          0.01843204	          0.09187487	          0.02414495	          0.33386965	          0.01000001	          0.01000000	          0.18005843	          0.21510173	          0.01202661	
          1.19146540	         -4.99670564	         -2.57558578	          9.81483587	          1.34252221	          0.82237422	         -0.01406400	         28.63886129	         -0.32434630	         -5.45312479	         -8.26291740	          5.97322309	          0.23014159	        -12.55476718	         -2.75657481	          3.61979528	        -14.22067746	          8.11263342	         29.61569986	         -6.26618518	          2.46261091	         -4.36066517	          0.08028936	          0.09968587	          0.01292340	          0.10011137	          0.17171836	          0.04530048	          0.08294284	          0.08651038	          0.04291476	          0.01000000	          0.00999999	          0.01309294	          0.01000001	          0.32130309	          0.11835695	          0.00999999	          0.00999999	          0.02414495	          0.08199807	          0.01727072	          0.07702494	          0.02024235	          0.32116005	          0.01000000	          0.01000000	          0.15095520	          0.18093943	          0.01008273	
          1.20303302	         -5.02125844	         -2.40434151	          9.47349790	          1.35828855	          0.82150234	         -0.01346495	         28.32034038	         -0.11512486	         -4.61735597	         -9.50759096	          5.60117950	          0.21907409	        -12.00742444	         -2.55823242	          2.79089244	        -17.22069191	          7.17174985	         30.85355095	         -6.04992423	          2.89146620	         -4.44834100	          0.07550877	          0.08357344	          0.01083457	          0.12270207	          0.17422720	          0.04258129	          0.06953662	          0.09634001	          0.03597836	          0.01000000	          0.02899899	          0.01097670	          0.01000000	          0.34262340	          0.14104286	          0.00999999	          0.00999999	          0.02024235	          0.09529432	          0.02037183	          0.06457524	          0.01697054	          0.29589703	          0.01000000	          0.00999999	          0.12655600	          0.15169381	          0.00999999	
          1.21460065	         -5.03327946	         -2.24075613	          9.08017342	          1.37383831	          0.82114541	         -0.01278125	         27.95965031	          0.11029830	         -3.88101766	        -10.67946431	          5.30808427	          0.20814890	        -11.17874423	         -2.37806130	          1.88583327	        -20.66183983	          6.08098955	         31.56529276	         -5.86349901	          3.33180853	         -4.50879202	          0.06330415	          0.07006529	          0.00999999	          0.13294445	          0.14685867	          0.04605190	          0.05829728	          0.08206502	          0.03016310	          0.01000000	          0.08717941	          0.01000000	          0.01000000	          0.35277209	          0.15106531	          0.00999999	          0.00999999	          0.01697054	          0.10623164	          0.02105324	          0.05413781	          0.01422756	          0.25680255	          0.00999999	          0.00999999	          0.10610049	          0.12717522	          0.00999999	
          1.22616827	         -5.03528086	         -2.07739266	          8.63528108	          1.38908506	          0.82139621	         -0.01203645	         27.52825441	          0.33855853	         -3.22917919	        -11.71917386	          5.13646826	          0.19559105	        -10.07595084	         -2.22377957	          0.89793258	        -24.48214471	          4.78014409	         31.61358589	         -5.71498530	          3.77405510	         -4.54168625	          0.05307217	          0.05874049	          0.00999999	          0.13493285	          0.12312160	          0.04598488	          0.04887457	          0.07297242	          0.02528778	          0.01000000	          0.14409608	          0.01000001	          0.01000002	          0.35540588	          0.16071047	          0.00999999	          0.00999999	          0.01422756	          0.12320262	          0.01765040	          0.04538742	          0.01192793	          0.21529502	          0.00999999	          0.00999999	          0.08895124	          0.10661962	          0.00999999	
          1.23773590	         -5.02975330	         -1.90253034	          8.13570089	          1.40400154	          0.82231866	         -0.01125776	         26.97226469	          0.55603515	         -2.64599260	        -12.53057316	          5.11145413	          0.18566060	         -8.73681488	         -2.09707006	         -0.15757716	        -28.54367003	          3.11314331	         31.04056931	         -5.60645084	          4.20469864	         -4.54382555	          0.04449401	          0.04924614	          0.00999999	          0.13494433	          0.10322119	          0.04765898	          0.04097488	          0.06183443	          0.02120046	          0.01000000	          0.17372564	          0.01000000	          0.01000000	          0.34608536	          0.16303646	          0.00999999	          0.00999999	          0.01192793	          0.13647523	          0.01479756	          0.05075809	          0.00999999	          0.18049643	          0.00999999	          0.00999999	          0.07457387	          0.08938647	          0.01297495	
          1.24930352	         -5.01806999	         -1.70124615	          7.58101986	          1.41858308	          0.82387197	         -0.01046628	         26.27224060	          0.74535699	         -2.09392789	        -13.07892387	          5.21636971	          0.17959037	         -7.21076966	         -1.99269125	         -1.25562948	        -32.72573039	          1.17103110	         29.62673334	         -5.53850838	          4.60593426	         -4.51390254	          0.03730235	          0.04128638	          0.01000000	          0.14356305	          0.08653734	          0.04629742	          0.03435203	          0.05184000	          0.01777379	          0.00999999	          0.16566346	          0.01058595	          0.01146827	          0.32875289	          0.16915914	          0.02091937	          0.01000000	          0.00999999	          0.12338984	          0.01422779	          0.04255397	          0.00999999	          0.15132242	          0.00999999	          0.00999999	          0.06252034	          0.07493875	          0.06384367	
          1.26087115	         -4.99984204	         -1.47251320	          6.98257234	          1.43281076	          0.82588624	         -0.00967451	         25.46481322	          0.89879138	         -1.54260705	        -13.42329630	          5.41327316	          0.17984522	         -5.55661190	         -1.91145038	         -2.36816795	        -36.95907349	         -0.60709545	         26.96563618	         -5.51131802	          4.96974198	         -4.45614976	          0.03127309	          0.03461318	          0.00999999	          0.14868984	          0.07255013	          0.04386133	          0.02879964	          0.05238945	          0.01490097	          0.00999999	          0.16362404	          0.01000000	          0.01000000	          0.31098545	          0.19125904	          0.05576781	          0.01000028	          0.00999999	          0.10344608	          0.01192812	          0.03567600	          0.00999999	          0.12686386	          0.00999999	          0.00999999	          0.05241504	          0.06282624	          0.16947056	
          1.27243877	         -4.97396582	         -1.21645006	          6.34898395	          1.44669936	          0.82816513	         -0.00888420	         24.57669514	          1.01057513	         -0.98775043	        -13.60308917	          5.64960608	          0.18506216	         -3.87331929	         -1.82410177	         -3.46546552	        -41.05664592	         -1.44998988	         23.40871564	         -5.52041888	          5.28261742	         -4.36804476	          0.02621836	          0.02901858	          0.00999999	          0.14000451	          0.06082370	          0.04253705	          0.02414470	          0.05099741	          0.01249250	          0.00999999	          0.15303945	          0.01000000	          0.01000000	          0.29001987	          0.19959979	          0.06060290	          0.01858040	          0.00999999	          0.08672588	          0.01000016	          0.07284777	          0.00999999	          0.11121576	          0.00999999	          0.00999999	          0.04394311	          0.05267150	          0.18926362	
